<?xml version="1.0" encoding="UTF-8"?>
<svg width="2256px" height="480px" viewBox="0 0 2256 480" version="1.1" xmlns="http://www.w3.org/2000/svg" xmlns:xlink="http://www.w3.org/1999/xlink">
    <title>Logo Horizontal Queen City Development Group</title>
    <g id="Logo-Horizontal-Queen-City-Development-Group" stroke="none" stroke-width="1" fill="none" fill-rule="evenodd">
        <path d="M240,0 C372.54834,0 480,107.45166 480,240 C480,372.54834 372.54834,480 240,480 C107.45166,480 0,372.54834 0,240 C0,107.45166 107.45166,0 240,0 Z M212.797757,247.320606 L161.725566,247.320606 C156.421237,247.320606 151.334158,249.427742 147.583431,253.17847 L110.896969,289.864932 C103.086483,297.675417 103.086483,310.338717 110.896969,318.149203 L161.96916,369.221393 C169.779646,377.031879 182.442945,377.031879 190.253431,369.221393 L226.939893,332.534932 C230.69062,328.784204 232.797757,323.697126 232.797757,318.392796 L232.797757,267.320606 C232.797757,256.274911 223.843452,247.320606 212.797757,247.320606 Z M318.392796,247.320606 L267.320606,247.320606 C256.274911,247.320606 247.320606,256.274911 247.320606,267.320606 L247.320606,318.392796 C247.320606,323.697126 249.427742,328.784204 253.17847,332.534932 L289.864932,369.221393 C297.675417,377.031879 310.338717,377.031879 318.149203,369.221393 L369.221393,318.149203 C377.031879,310.338717 377.031879,297.675417 369.221393,289.864932 L332.534932,253.17847 C328.784204,249.427742 323.697126,247.320606 318.392796,247.320606 Z M190.253431,110.896969 C182.442945,103.086483 169.779646,103.086483 161.96916,110.896969 L110.896969,161.96916 C103.086483,169.779646 103.086483,182.442945 110.896969,190.253431 L147.583431,226.939893 C151.334158,230.69062 156.421237,232.797757 161.725566,232.797757 L212.797757,232.797757 C223.843452,232.797757 232.797757,223.843452 232.797757,212.797757 L232.797757,161.725566 C232.797757,156.421237 230.69062,151.334158 226.939893,147.583431 L190.253431,110.896969 Z M318.149203,110.896969 C310.338717,103.086483 297.675417,103.086483 289.864932,110.896969 L253.17847,147.583431 C249.427742,151.334158 247.320606,156.421237 247.320606,161.725566 L247.320606,212.797757 C247.320606,223.843452 256.274911,232.797757 267.320606,232.797757 L318.392796,232.797757 C323.697126,232.797757 328.784204,230.69062 332.534932,226.939893 L369.221393,190.253431 C377.031879,182.442945 377.031879,169.779646 369.221393,161.96916 L318.149203,110.896969 Z M578.561,209.374 C583.689667,209.374 588.504333,208.379667 593.005,206.391 L575.107,191.162 L590.493,173.892 L608.548,190.22 C610.536667,185.824 611.531,180.8 611.531,175.148 L611.531,174.834 C611.531,170.124 610.719833,165.675667 609.0975,161.489 C607.475167,157.302333 605.1725,153.639 602.1895,150.499 C599.2065,147.359 595.674,144.873167 591.592,143.0415 C587.51,141.209833 583.061667,140.294 578.247,140.294 C573.327667,140.294 568.853167,141.183667 564.8235,142.963 C560.793833,144.742333 557.339833,147.202 554.4615,150.342 C551.583167,153.482 549.332833,157.119167 547.7105,161.2535 C546.088167,165.387833 545.277,169.81 545.277,174.52 L545.277,174.834 C545.277,179.544 546.088167,183.992333 547.7105,188.179 C549.332833,192.365667 551.6355,196.029 554.6185,199.169 C557.6015,202.309 561.107833,204.794833 565.1375,206.6265 C569.167167,208.458167 573.641667,209.374 578.561,209.374 Z M610.903,222.248 C606.193,225.283333 601.116667,227.612167 595.674,229.2345 C590.231333,230.856833 584.422333,231.668 578.247,231.668 C569.769,231.668 561.971333,230.1765 554.854,227.1935 C547.736667,224.2105 541.5875,220.180833 536.4065,215.1045 C531.2255,210.028167 527.195833,204.062167 524.3175,197.2065 C521.53842,190.587236 520.100964,183.504501 520.005134,175.958295 L520,174.834 C520,166.984 521.465333,159.631167 524.396,152.7755 C527.326667,145.919833 531.3825,139.9015 536.5635,134.7205 C541.7445,129.5395 547.919833,125.4575 555.0895,122.4745 C562.259167,119.4915 570.083,118 578.561,118 C587.039,118 594.836667,119.4915 601.954,122.4745 C609.071333,125.4575 615.2205,129.487167 620.4015,134.5635 C625.5825,139.639833 629.612167,145.605833 632.4905,152.4615 C635.368833,159.317167 636.808,166.67 636.808,174.52 L636.808,174.834 C636.808,180.590667 635.970667,186.138 634.296,191.476 C632.621333,196.814 630.214,201.785667 627.074,206.391 L638.378,215.968 L622.992,233.081 L610.903,222.248 Z M695.006481,231.511 C680.248481,231.511 668.630481,227.429 660.152481,219.265 C651.674481,211.101 647.435481,198.907333 647.435481,182.684 L647.435481,119.884 L671.613481,119.884 L671.613481,182.056 C671.613481,191.057333 673.706814,197.8345 677.893481,202.3875 C682.080148,206.9405 687.889148,209.217 695.320481,209.217 C702.751814,209.217 708.560814,207.019 712.747481,202.623 C716.934148,198.227 719.027481,191.633 719.027481,182.841 L719.027481,119.884 L743.205481,119.884 L743.205481,181.899 C743.205481,190.272333 742.080314,197.546667 739.829981,203.722 C737.579648,209.897333 734.361148,215.052167 730.174481,219.1865 C725.987814,223.320833 720.911481,226.4085 714.945481,228.4495 C708.979481,230.4905 702.333148,231.511 695.006481,231.511 Z M758.699962,119.884 L841.595962,119.884 L841.595962,141.393 L782.720962,141.393 L782.720962,163.687 L834.530962,163.687 L834.530962,185.196 L782.720962,185.196 L782.720962,208.275 L842.380962,208.275 L842.380962,229.784 L758.699962,229.784 L758.699962,119.884 Z M854.735443,119.884 L937.631443,119.884 L937.631443,141.393 L878.756443,141.393 L878.756443,163.687 L930.566443,163.687 L930.566443,185.196 L878.756443,185.196 L878.756443,208.275 L938.416443,208.275 L938.416443,229.784 L854.735443,229.784 L854.735443,119.884 Z M950.770924,119.884 L973.064924,119.884 L1024.56092,187.551 L1024.56092,119.884 L1048.42492,119.884 L1048.42492,229.784 L1027.85792,229.784 L974.634924,159.919 L974.634924,229.784 L950.770924,229.784 L950.770924,119.884 Z M1155.08789,231.668 C1147.02855,231.668 1139.54489,230.202667 1132.63689,227.272 C1125.72889,224.341333 1119.76289,220.337833 1114.73889,215.2615 C1109.71489,210.185167 1105.78989,204.193 1102.96389,197.285 C1100.23533,190.615207 1098.82401,183.506337 1098.72993,175.958389 L1098.72489,174.834 C1098.72489,166.984 1100.13789,159.631167 1102.96389,152.7755 C1105.78989,145.919833 1109.71489,139.9015 1114.73889,134.7205 C1119.76289,129.5395 1125.78122,125.4575 1132.79389,122.4745 C1139.80655,119.4915 1147.55189,118 1156.02989,118 C1161.15855,118 1165.84239,118.418667 1170.08139,119.256 C1174.32039,120.093333 1178.16689,121.244667 1181.62089,122.71 C1185.07489,124.175333 1188.26722,125.954667 1191.19789,128.048 C1194.12855,130.141333 1196.84989,132.444 1199.36189,134.956 L1183.97589,152.697 C1179.68455,148.824333 1175.31472,145.789 1170.86639,143.591 C1166.41805,141.393 1161.42022,140.294 1155.87289,140.294 C1151.26755,140.294 1147.00239,141.183667 1143.07739,142.963 C1139.15239,144.742333 1135.77689,147.202 1132.95089,150.342 C1130.12489,153.482 1127.92689,157.119167 1126.35689,161.2535 C1124.78689,165.387833 1124.00189,169.81 1124.00189,174.52 L1124.00189,174.834 C1124.00189,179.544 1124.78689,183.992333 1126.35689,188.179 C1127.92689,192.365667 1130.09872,196.029 1132.87239,199.169 C1135.64605,202.309 1138.99539,204.794833 1142.92039,206.6265 C1146.84539,208.458167 1151.16289,209.374 1155.87289,209.374 C1162.15289,209.374 1167.46472,208.222667 1171.80839,205.92 C1176.15205,203.617333 1180.46955,200.477333 1184.76089,196.5 L1200.14689,212.043 C1197.32089,215.078333 1194.39022,217.799667 1191.35489,220.207 C1188.31955,222.614333 1184.99639,224.6815 1181.38539,226.4085 C1177.77439,228.1355 1173.82322,229.443833 1169.53189,230.3335 C1165.24055,231.223167 1160.42589,231.668 1155.08789,231.668 Z M1211.40237,119.884 L1235.58037,119.884 L1235.58037,229.784 L1211.40237,229.784 L1211.40237,119.884 Z M1363.43833,119.884 L1389.65733,164.001 L1416.34733,119.884 L1443.82233,119.884 L1401.58933,185.981 L1401.58933,229.784 L1377.41133,229.784 L1377.41133,186.452 L1337.11,122.929 L1337.11085,142.178 L1303.66985,142.178 L1303.66985,229.784 L1279.49185,229.784 L1279.49185,142.178 L1246.05085,142.178 L1246.05085,119.884 L1363.43833,119.884 Z M568.151,348.323 C575.059,348.323 581.339,347.224 586.991,345.026 C592.643,342.828 597.4315,339.792667 601.3565,335.92 C605.2815,332.047333 608.316833,327.468167 610.4625,322.1825 C612.608167,316.896833 613.681,311.218667 613.681,305.148 L613.681,304.834 C613.681,298.763333 612.608167,293.085167 610.4625,287.7995 C608.316833,282.513833 605.2815,277.9085 601.3565,273.9835 C597.4315,270.0585 592.643,266.970833 586.991,264.7205 C581.339,262.470167 575.059,261.345 568.151,261.345 L542.403,261.345 L542.403,348.323 L568.151,348.323 Z M530,249.884 L568.151,249.884 C576.733667,249.884 584.609833,251.270833 591.7795,254.0445 C598.949167,256.818167 605.1245,260.664667 610.3055,265.584 C615.4865,270.503333 619.49,276.286167 622.316,282.9325 C625.142,289.578833 626.555,296.774667 626.555,304.52 L626.555,304.834 C626.555,312.579333 625.142,319.801333 622.316,326.5 C619.49,333.198667 615.4865,339.007667 610.3055,343.927 C605.1245,348.846333 598.949167,352.719 591.7795,355.545 C584.609833,358.371 576.733667,359.784 568.151,359.784 L530,359.784 L530,249.884 Z M643.619481,249.884 L723.061481,249.884 L723.061481,261.188 L656.022481,261.188 L656.022481,298.711 L715.996481,298.711 L715.996481,310.015 L656.022481,310.015 L656.022481,348.48 L723.846481,348.48 L723.846481,359.784 L643.619481,359.784 L643.619481,249.884 Z M730.234962,249.884 L744.050962,249.884 L783.143962,344.555 L822.393962,249.884 L835.738962,249.884 L788.481962,360.569 L777.491962,360.569 L730.234962,249.884 Z M848.250443,249.884 L927.692443,249.884 L927.692443,261.188 L860.653443,261.188 L860.653443,298.711 L920.627443,298.711 L920.627443,310.015 L860.653443,310.015 L860.653443,348.48 L928.477443,348.48 L928.477443,359.784 L848.250443,359.784 L848.250443,249.884 Z M944.285924,249.884 L956.688924,249.884 L956.688924,348.323 L1018.54692,348.323 L1018.54692,359.784 L944.285924,359.784 L944.285924,249.884 Z M1083.65341,350.207 C1089.93341,350.207 1095.71624,349.0295 1101.00191,346.6745 C1106.28757,344.3195 1110.81441,341.101 1114.58241,337.019 C1118.35041,332.937 1121.30724,328.174667 1123.45291,322.732 C1125.59857,317.289333 1126.67141,311.428 1126.67141,305.148 L1126.67141,304.834 C1126.67141,298.554 1125.59857,292.6665 1123.45291,287.1715 C1121.30724,281.6765 1118.29807,276.888 1114.42541,272.806 C1110.55274,268.724 1105.97357,265.479333 1100.68791,263.072 C1095.40224,260.664667 1089.61941,259.461 1083.33941,259.461 C1077.05941,259.461 1071.27657,260.6385 1065.99091,262.9935 C1060.70524,265.3485 1056.17841,268.567 1052.41041,272.649 C1048.64241,276.731 1045.68557,281.493333 1043.53991,286.936 C1041.39424,292.378667 1040.32141,298.24 1040.32141,304.52 L1040.32141,304.834 C1040.32141,311.114 1041.39424,317.0015 1043.53991,322.4965 C1045.68557,327.9915 1048.69474,332.78 1052.56741,336.862 C1056.44007,340.944 1061.01924,344.188667 1066.30491,346.596 C1071.59057,349.003333 1077.37341,350.207 1083.65341,350.207 Z M1083.33941,361.668 C1074.96607,361.668 1067.35157,360.150333 1060.49591,357.115 C1053.64024,354.079667 1047.75274,349.9715 1042.83341,344.7905 C1037.91407,339.6095 1034.11991,333.591167 1031.45091,326.7355 C1028.87723,320.124679 1027.54443,313.197554 1027.45251,305.954127 L1027.44741,304.834 C1027.44741,297.298 1028.80807,290.076 1031.52941,283.168 C1034.25074,276.26 1038.07107,270.2155 1042.99041,265.0345 C1047.90974,259.8535 1053.82341,255.719167 1060.73141,252.6315 C1067.63941,249.543833 1075.28007,248 1083.65341,248 C1092.02674,248 1099.64124,249.517667 1106.49691,252.553 C1113.35257,255.588333 1119.24007,259.6965 1124.15941,264.8775 C1129.07874,270.0585 1132.87291,276.076833 1135.54191,282.9325 C1138.21091,289.788167 1139.54541,296.984 1139.54541,304.52 C1139.65007,304.624667 1139.65007,304.729333 1139.54541,304.834 C1139.54541,312.37 1138.18474,319.592 1135.46341,326.5 C1132.74207,333.408 1128.92174,339.4525 1124.00241,344.6335 C1119.08307,349.8145 1113.16941,353.948833 1106.26141,357.0365 C1099.35341,360.124167 1091.71274,361.668 1083.33941,361.668 Z M1196.17389,309.701 C1200.67455,309.701 1204.78272,309.125333 1208.49839,307.974 C1212.21405,306.822667 1215.40639,305.174167 1218.07539,303.0285 C1220.74439,300.882833 1222.78539,298.344667 1224.19839,295.414 C1225.61139,292.483333 1226.31789,289.186333 1226.31789,285.523 L1226.31789,285.209 C1226.31789,277.359 1223.62272,271.419167 1218.23239,267.3895 C1212.84205,263.359833 1205.69855,261.345 1196.80189,261.345 L1169.01289,261.345 L1169.01289,309.701 L1196.17389,309.701 Z M1156.60989,249.884 L1197.74389,249.884 C1203.91922,249.884 1209.54505,250.695167 1214.62139,252.3175 C1219.69772,253.939833 1224.04139,256.2425 1227.65239,259.2255 C1231.26339,262.2085 1234.03705,265.845667 1235.97339,270.137 C1237.90972,274.428333 1238.87789,279.295333 1238.87789,284.738 L1238.87789,285.052 C1238.87789,291.018 1237.72655,296.225167 1235.42389,300.6735 C1233.12122,305.121833 1230.00739,308.863667 1226.08239,311.899 C1222.15739,314.934333 1217.57822,317.210833 1212.34489,318.7285 C1207.11155,320.246167 1201.56422,321.005 1195.70289,321.005 L1169.01289,321.005 L1169.01289,359.784 L1156.60989,359.784 L1156.60989,249.884 Z M1252.33137,249.884 L1264.89137,249.884 L1304.92637,309.858 L1344.96137,249.884 L1357.52137,249.884 L1357.52137,359.784 L1345.11837,359.784 L1345.11837,270.765 L1305.08337,329.64 L1304.45537,329.64 L1264.42037,270.922 L1264.42037,359.784 L1252.33137,359.784 L1252.33137,249.884 Z M1379.45285,249.884 L1458.89485,249.884 L1458.89485,261.188 L1391.85585,261.188 L1391.85585,298.711 L1451.82985,298.711 L1451.82985,310.015 L1391.85585,310.015 L1391.85585,348.48 L1459.67985,348.48 L1459.67985,359.784 L1379.45285,359.784 L1379.45285,249.884 Z M1475.48833,249.884 L1487.10633,249.884 L1556.34333,337.961 L1556.34333,249.884 L1568.43233,249.884 L1568.43233,359.784 L1558.54133,359.784 L1487.57733,269.666 L1487.57733,359.784 L1475.48833,359.784 L1475.48833,249.884 Z M1619.40881,261.345 L1582.51381,261.345 L1582.51381,249.884 L1668.86381,249.884 L1668.86381,261.345 L1631.96881,261.345 L1631.96881,359.784 L1619.40881,359.784 L1619.40881,261.345 Z M1771.91577,361.668 C1763.22844,361.668 1755.45694,360.202667 1748.60127,357.272 C1741.74561,354.341333 1735.88427,350.311667 1731.01727,345.183 C1726.15027,340.054333 1722.43461,334.062167 1719.87027,327.2065 C1717.39752,320.595679 1716.11699,313.522568 1716.02868,305.987169 L1716.02377,304.834 C1716.02377,297.298 1717.35827,290.102167 1720.02727,283.2465 C1722.69627,276.390833 1726.43811,270.346333 1731.25277,265.113 C1736.06744,259.879667 1741.85027,255.719167 1748.60127,252.6315 C1755.35227,249.543833 1762.86211,248 1771.13077,248 C1775.73611,248 1779.94894,248.314 1783.76927,248.942 C1787.58961,249.57 1791.14827,250.512 1794.44527,251.768 C1797.74227,253.024 1800.82994,254.567833 1803.70827,256.3995 C1806.58661,258.231167 1809.38644,260.298333 1812.10777,262.601 L1804.10077,272.021 C1802.00744,270.137 1799.80944,268.436167 1797.50677,266.9185 C1795.20411,265.400833 1792.71827,264.0925 1790.04927,262.9935 C1787.38027,261.8945 1784.44961,261.031 1781.25727,260.403 C1778.06494,259.775 1774.53244,259.461 1770.65977,259.461 C1764.58911,259.461 1758.98944,260.664667 1753.86077,263.072 C1748.73211,265.479333 1744.33611,268.724 1740.67277,272.806 C1737.00944,276.888 1734.13111,281.6765 1732.03777,287.1715 C1729.94444,292.6665 1728.89777,298.449333 1728.89777,304.52 L1728.89777,304.834 C1728.89777,311.428 1729.91827,317.498667 1731.95927,323.046 C1734.00027,328.593333 1736.90477,333.408 1740.67277,337.49 C1744.44077,341.572 1748.99377,344.764333 1754.33177,347.067 C1759.66977,349.369667 1765.68811,350.521 1772.38677,350.521 C1778.66677,350.521 1784.58044,349.448167 1790.12777,347.3025 C1795.67511,345.156833 1800.33277,342.566333 1804.10077,339.531 L1804.10077,312.213 L1770.65977,312.213 L1770.65977,301.066 L1816.03277,301.066 L1816.03277,344.869 C1810.90411,349.474333 1804.59794,353.4255 1797.11427,356.7225 C1789.63061,360.0195 1781.23111,361.668 1771.91577,361.668 Z M1880.98225,305.933 C1885.06425,305.933 1888.83225,305.409667 1892.28625,304.363 C1895.74025,303.316333 1898.72325,301.824833 1901.23525,299.8885 C1903.74725,297.952167 1905.70975,295.597167 1907.12275,292.8235 C1908.53575,290.049833 1909.24225,286.883667 1909.24225,283.325 L1909.24225,283.011 C1909.24225,276.207667 1906.78259,270.895833 1901.86325,267.0755 C1896.94392,263.255167 1890.03592,261.345 1881.13925,261.345 L1847.22725,261.345 L1847.22725,305.933 L1880.98225,305.933 Z M1834.82425,249.884 L1882.08125,249.884 C1888.88459,249.884 1894.92909,250.852167 1900.21475,252.7885 C1905.50042,254.724833 1909.87025,257.42 1913.32425,260.874 C1916.04559,263.595333 1918.13892,266.787667 1919.60425,270.451 C1921.06959,274.114333 1921.80225,278.144 1921.80225,282.54 L1921.80225,282.854 C1921.80225,287.459333 1921.06959,291.5675 1919.60425,295.1785 C1918.13892,298.7895 1916.07175,301.9295 1913.40275,304.5985 C1910.73375,307.2675 1907.56759,309.4655 1903.90425,311.1925 C1900.24092,312.9195 1896.26359,314.149333 1891.97225,314.882 L1925.72725,359.784 L1910.49825,359.784 L1878.62725,317.08 L1847.22725,317.08 L1847.22725,359.784 L1834.82425,359.784 L1834.82425,249.884 Z M1990.51973,350.207 C1996.79973,350.207 2002.58257,349.0295 2007.86823,346.6745 C2013.1539,344.3195 2017.68073,341.101 2021.44873,337.019 C2025.21673,332.937 2028.17357,328.174667 2030.31923,322.732 C2032.4649,317.289333 2033.53773,311.428 2033.53773,305.148 L2033.53773,304.834 C2033.53773,298.554 2032.4649,292.6665 2030.31923,287.1715 C2028.17357,281.6765 2025.1644,276.888 2021.29173,272.806 C2017.41907,268.724 2012.8399,265.479333 2007.55423,263.072 C2002.26857,260.664667 1996.48573,259.461 1990.20573,259.461 C1983.92573,259.461 1978.1429,260.6385 1972.85723,262.9935 C1967.57157,265.3485 1963.04473,268.567 1959.27673,272.649 C1955.50873,276.731 1952.5519,281.493333 1950.40623,286.936 C1948.26057,292.378667 1947.18773,298.24 1947.18773,304.52 L1947.18773,304.834 C1947.18773,311.114 1948.26057,317.0015 1950.40623,322.4965 C1952.5519,327.9915 1955.56107,332.78 1959.43373,336.862 C1963.3064,340.944 1967.88557,344.188667 1973.17123,346.596 C1978.4569,349.003333 1984.23973,350.207 1990.51973,350.207 Z M1990.20573,361.668 C1981.8324,361.668 1974.2179,360.150333 1967.36223,357.115 C1960.50657,354.079667 1954.61907,349.9715 1949.69973,344.7905 C1944.7804,339.6095 1940.98623,333.591167 1938.31723,326.7355 C1935.74356,320.124679 1934.41076,313.197554 1934.31884,305.954127 L1934.31373,304.834 C1934.31373,297.298 1935.6744,290.076 1938.39573,283.168 C1941.11707,276.26 1944.9374,270.2155 1949.85673,265.0345 C1954.77607,259.8535 1960.68973,255.719167 1967.59773,252.6315 C1974.50573,249.543833 1982.1464,248 1990.51973,248 C1998.89307,248 2006.50757,249.517667 2013.36323,252.553 C2020.2189,255.588333 2026.1064,259.6965 2031.02573,264.8775 C2035.94507,270.0585 2039.73923,276.076833 2042.40823,282.9325 C2045.07723,289.788167 2046.41173,296.984 2046.41173,304.52 C2046.5164,304.624667 2046.5164,304.729333 2046.41173,304.834 C2046.41173,312.37 2045.05107,319.592 2042.32973,326.5 C2039.6084,333.408 2035.78807,339.4525 2030.86873,344.6335 C2025.9494,349.8145 2020.03573,353.948833 2013.12773,357.0365 C2006.21973,360.124167 1998.57907,361.668 1990.20573,361.668 Z M2107.43622,361.511 C2100.63288,361.511 2094.43138,360.4905 2088.83172,358.4495 C2083.23205,356.4085 2078.41738,353.373167 2074.38772,349.3435 C2070.35805,345.313833 2067.24422,340.316 2065.04622,334.35 C2062.84822,328.384 2061.74922,321.528333 2061.74922,313.783 L2061.74922,249.884 L2074.15222,249.884 L2074.15222,312.998 C2074.15222,324.93 2077.10905,334.088333 2083.02272,340.473 C2088.93638,346.857667 2097.17888,350.05 2107.75022,350.05 C2117.90288,350.05 2125.96222,347.014667 2131.92822,340.944 C2137.89422,334.873333 2140.87722,325.819667 2140.87722,313.783 L2140.87722,249.884 L2153.28022,249.884 L2153.28022,312.841 C2153.28022,320.900333 2152.18122,327.965333 2149.98322,334.036 C2147.78522,340.106667 2144.67138,345.183 2140.64172,349.265 C2136.61205,353.347 2131.79738,356.4085 2126.19772,358.4495 C2120.59805,360.4905 2114.34422,361.511 2107.43622,361.511 Z M2213.0487,309.701 C2217.54936,309.701 2221.65753,309.125333 2225.3732,307.974 C2229.08886,306.822667 2232.2812,305.174167 2234.9502,303.0285 C2237.6192,300.882833 2239.6602,298.344667 2241.0732,295.414 C2242.4862,292.483333 2243.1927,289.186333 2243.1927,285.523 L2243.1927,285.209 C2243.1927,277.359 2240.49753,271.419167 2235.1072,267.3895 C2229.71686,263.359833 2222.57336,261.345 2213.6767,261.345 L2185.8877,261.345 L2185.8877,309.701 L2213.0487,309.701 Z M2173.4847,249.884 L2214.6187,249.884 C2220.79403,249.884 2226.41986,250.695167 2231.4962,252.3175 C2236.57253,253.939833 2240.9162,256.2425 2244.5272,259.2255 C2248.1382,262.2085 2250.91186,265.845667 2252.8482,270.137 C2254.78453,274.428333 2255.7527,279.295333 2255.7527,284.738 L2255.7527,285.052 C2255.7527,291.018 2254.60136,296.225167 2252.2987,300.6735 C2249.99603,305.121833 2246.8822,308.863667 2242.9572,311.899 C2239.0322,314.934333 2234.45303,317.210833 2229.2197,318.7285 C2223.98636,320.246167 2218.43903,321.005 2212.5777,321.005 L2185.8877,321.005 L2185.8877,359.784 L2173.4847,359.784 L2173.4847,249.884 Z" id="Shape" fill="#000000"></path>
    </g>
</svg>