<?xml version="1.0" encoding="UTF-8"?>
<svg width="2538px" height="480px" viewBox="0 0 2538 480" version="1.1" xmlns="http://www.w3.org/2000/svg" xmlns:xlink="http://www.w3.org/1999/xlink">
    <title>Logo Horizontal Queen City</title>
    <g id="Logo-Horizontal-Queen-City" stroke="none" stroke-width="1" fill="none" fill-rule="evenodd">
        <path d="M240,0 C372.54834,0 480,107.45166 480,240 C480,372.54834 372.54834,480 240,480 C107.45166,480 -2.27373675e-13,372.54834 -2.27373675e-13,240 C-2.27373675e-13,107.45166 107.45166,0 240,0 Z M212.962218,247 L161.793548,247 C156.479197,247 151.382509,249.111117 147.624696,252.86893 L110.86893,289.624696 C103.04369,297.449937 103.04369,310.137158 110.86893,317.962399 L162.037601,369.13107 C169.862842,376.95631 182.550063,376.95631 190.375304,369.13107 L227.13107,332.375304 C230.888883,328.617491 233,323.520803 233,318.206452 L233,267.037782 C233,255.97122 224.02878,247 212.962218,247 Z M318.206452,247 L267.037782,247 C255.97122,247 247,255.97122 247,267.037782 L247,318.206452 C247,323.520803 249.111117,328.617491 252.86893,332.375304 L289.624696,369.13107 C297.449937,376.95631 310.137158,376.95631 317.962399,369.13107 L369.13107,317.962399 C376.95631,310.137158 376.95631,297.449937 369.13107,289.624696 L332.375304,252.86893 C328.617491,249.111117 323.520803,247 318.206452,247 Z M190.375304,110.86893 C182.550063,103.04369 169.862842,103.04369 162.037601,110.86893 L110.86893,162.037601 C103.04369,169.862842 103.04369,182.550063 110.86893,190.375304 L147.624696,227.13107 C151.382509,230.888883 156.479197,233 161.793548,233 L212.962218,233 C224.02878,233 233,224.02878 233,212.962218 L233,161.793548 C233,156.479197 230.888883,151.382509 227.13107,147.624696 L190.375304,110.86893 Z M317.962399,110.86893 C310.137158,103.04369 297.449937,103.04369 289.624696,110.86893 L252.86893,147.624696 C249.111117,151.382509 247,156.479197 247,161.793548 L247,212.962218 C247,224.02878 255.97122,233 267.037782,233 L318.206452,233 C323.520803,233 328.617491,230.888883 332.375304,227.13107 L369.13107,190.375304 C376.95631,182.550063 376.95631,169.862842 369.13107,162.037601 L317.962399,110.86893 Z M647.939,315.626 C659.143667,315.626 669.662333,313.453667 679.495,309.109 L640.393,275.838 L674.007,238.108 L713.452,273.78 C717.796667,264.176 719.969,253.2 719.969,240.852 L719.969,240.166 C719.969,229.876 718.196833,220.157667 714.6525,211.011 C711.108167,201.864333 706.0775,193.861 699.5605,187.001 C693.0435,180.141 685.326,174.710167 676.408,170.7085 C667.49,166.706833 657.771667,164.706 647.253,164.706 C636.505667,164.706 626.730167,166.649667 617.9265,170.537 C609.122833,174.424333 601.576833,179.798 595.2885,186.658 C589.000167,193.518 584.083833,201.464167 580.5395,210.4965 C576.995167,219.528833 575.223,229.19 575.223,239.48 L575.223,240.166 C575.223,250.456 576.995167,260.174333 580.5395,269.321 C584.083833,278.467667 589.1145,286.471 595.6315,293.331 C602.1485,300.191 609.808833,305.621833 618.6125,309.6235 C627.416167,313.625167 637.191667,315.626 647.939,315.626 Z M718.597,343.752 C708.307,350.383333 697.216667,355.471167 685.326,359.0155 C673.435333,362.559833 660.744333,364.332 647.253,364.332 C628.731,364.332 611.695333,361.0735 596.146,354.5565 C580.596667,348.0395 567.1625,339.235833 555.8435,328.1455 C544.5245,317.055167 535.720833,304.021167 529.4325,289.0435 C523.2725,274.3715 520.129643,258.657214 520.003929,241.900643 L520,240.166 C520,223.016 523.201333,206.952167 529.604,191.9745 C536.006667,176.996833 544.8675,163.8485 556.1865,152.5295 C567.5055,141.2105 580.996833,132.2925 596.6605,125.7755 C612.324167,119.2585 629.417,116 647.939,116 C666.461,116 683.496667,119.2585 699.046,125.7755 C714.595333,132.2925 728.0295,141.096167 739.3485,152.1865 C750.6675,163.276833 759.471167,176.310833 765.7595,191.2885 C772.047833,206.266167 775.192,222.33 775.192,239.48 L775.192,240.166 C775.192,252.742667 773.362667,264.862 769.704,276.524 C766.045333,288.186 760.786,299.047667 753.926,309.109 L778.622,330.032 L745.008,367.419 L718.597,343.752 Z M902.339,363.989 C870.097,363.989 844.715,355.071 826.193,337.235 C807.671,319.399 798.41,292.759333 798.41,257.316 L798.41,120.116 L851.232,120.116 L851.232,255.944 C851.232,275.609333 855.805333,290.4155 864.952,300.3625 C874.098667,310.3095 886.789667,315.283 903.025,315.283 C919.260333,315.283 931.951333,310.481 941.098,300.877 C950.244667,291.273 954.818,276.867 954.818,257.659 L954.818,120.116 L1007.64,120.116 L1007.64,255.601 C1007.64,273.894333 1005.18183,289.786667 1000.2655,303.278 C995.349167,316.769333 988.317667,328.031167 979.171,337.0635 C970.024333,346.095833 958.934,352.8415 945.9,357.3005 C932.866,361.7595 918.345667,363.989 902.339,363.989 Z M1041.491,120.116 L1222.595,120.116 L1222.595,167.107 L1093.97,167.107 L1093.97,215.813 L1207.16,215.813 L1207.16,262.804 L1093.97,262.804 L1093.97,313.225 L1224.31,313.225 L1224.31,360.216 L1041.491,360.216 L1041.491,120.116 Z M1251.301,120.116 L1432.405,120.116 L1432.405,167.107 L1303.78,167.107 L1303.78,215.813 L1416.97,215.813 L1416.97,262.804 L1303.78,262.804 L1303.78,313.225 L1434.12,313.225 L1434.12,360.216 L1251.301,360.216 L1251.301,120.116 Z M1461.111,120.116 L1509.817,120.116 L1622.321,267.949 L1622.321,120.116 L1674.457,120.116 L1674.457,360.216 L1629.524,360.216 L1513.247,207.581 L1513.247,360.216 L1461.111,360.216 L1461.111,120.116 Z M1907.485,364.332 C1889.87767,364.332 1873.528,361.130667 1858.436,354.728 C1843.344,348.325333 1830.31,339.578833 1819.334,328.4885 C1808.358,317.398167 1799.783,304.307 1793.609,289.215 C1787.435,274.123 1784.348,258.002 1784.348,240.852 L1784.348,240.166 C1784.348,223.016 1787.435,206.952167 1793.609,191.9745 C1799.783,176.996833 1808.358,163.8485 1819.334,152.5295 C1830.31,141.2105 1843.45833,132.2925 1858.779,125.7755 C1874.09967,119.2585 1891.021,116 1909.543,116 C1920.74767,116 1930.9805,116.914667 1940.2415,118.744 C1949.5025,120.573333 1957.906,123.088667 1965.452,126.29 C1972.998,129.491333 1979.97233,133.378667 1986.375,137.952 C1992.77767,142.525333 1998.723,147.556 2004.211,153.044 L1970.597,191.803 C1961.22167,183.342333 1951.67483,176.711 1941.9565,171.909 C1932.23817,167.107 1921.31933,164.706 1909.2,164.706 C1899.13867,164.706 1889.8205,166.649667 1881.2455,170.537 C1872.6705,174.424333 1865.296,179.798 1859.122,186.658 C1852.948,193.518 1848.146,201.464167 1844.716,210.4965 C1841.286,219.528833 1839.571,229.19 1839.571,239.48 L1839.571,240.166 C1839.571,250.456 1841.286,260.174333 1844.716,269.321 C1848.146,278.467667 1852.89083,286.471 1858.9505,293.331 C1865.01017,300.191 1872.3275,305.621833 1880.9025,309.6235 C1889.4775,313.625167 1898.91,315.626 1909.2,315.626 C1922.92,315.626 1934.52483,313.110667 1944.0145,308.08 C1953.50417,303.049333 1962.93667,296.189333 1972.312,287.5 L2005.926,321.457 C1999.752,328.088333 1993.34933,334.033667 1986.718,339.293 C1980.08667,344.552333 1972.8265,349.0685 1964.9375,352.8415 C1957.0485,356.6145 1948.41633,359.472833 1939.041,361.4165 C1929.66567,363.360167 1919.147,364.332 1907.485,364.332 Z M2030.516,120.116 L2083.338,120.116 L2083.338,360.216 L2030.516,360.216 L2030.516,120.116 Z M2362.671,120.116 L2419.952,216.499 L2478.262,120.116 L2538.287,120.116 L2446.02,264.519 L2446.02,360.216 L2393.198,360.216 L2393.198,265.548 L2305.153,126.77 L2305.153,168.822 L2232.094,168.822 L2232.094,360.216 L2179.272,360.216 L2179.272,168.822 L2106.213,168.822 L2106.213,120.116 L2362.671,120.116 Z" id="Shape" fill="#000000"></path>
    </g>
</svg>