<?xml version="1.0" encoding="UTF-8"?>
<svg width="480px" height="480px" viewBox="0 0 480 480" version="1.1" xmlns="http://www.w3.org/2000/svg" xmlns:xlink="http://www.w3.org/1999/xlink">
    <title>Logo</title>
    <g id="Logo" stroke="none" stroke-width="1" fill="none" fill-rule="evenodd">
        <path d="M240,0 C372.54834,0 480,107.45166 480,240 C480,372.54834 372.54834,480 240,480 C107.45166,480 0,372.54834 0,240 C0,107.45166 107.45166,0 240,0 Z M212.797757,247.320606 L161.725566,247.320606 C156.421237,247.320606 151.334158,249.427742 147.583431,253.17847 L110.896969,289.864932 C103.086483,297.675417 103.086483,310.338717 110.896969,318.149203 L161.96916,369.221393 C169.779646,377.031879 182.442945,377.031879 190.253431,369.221393 L226.939893,332.534932 C230.69062,328.784204 232.797757,323.697126 232.797757,318.392796 L232.797757,267.320606 C232.797757,256.274911 223.843452,247.320606 212.797757,247.320606 Z M318.392796,247.320606 L267.320606,247.320606 C256.274911,247.320606 247.320606,256.274911 247.320606,267.320606 L247.320606,318.392796 C247.320606,323.697126 249.427742,328.784204 253.17847,332.534932 L289.864932,369.221393 C297.675417,377.031879 310.338717,377.031879 318.149203,369.221393 L369.221393,318.149203 C377.031879,310.338717 377.031879,297.675417 369.221393,289.864932 L332.534932,253.17847 C328.784204,249.427742 323.697126,247.320606 318.392796,247.320606 Z M190.253431,110.896969 C182.442945,103.086483 169.779646,103.086483 161.96916,110.896969 L110.896969,161.96916 C103.086483,169.779646 103.086483,182.442945 110.896969,190.253431 L147.583431,226.939893 C151.334158,230.69062 156.421237,232.797757 161.725566,232.797757 L212.797757,232.797757 C223.843452,232.797757 232.797757,223.843452 232.797757,212.797757 L232.797757,161.725566 C232.797757,156.421237 230.69062,151.334158 226.939893,147.583431 L190.253431,110.896969 Z M318.149203,110.896969 C310.338717,103.086483 297.675417,103.086483 289.864932,110.896969 L253.17847,147.583431 C249.427742,151.334158 247.320606,156.421237 247.320606,161.725566 L247.320606,212.797757 C247.320606,223.843452 256.274911,232.797757 267.320606,232.797757 L318.392796,232.797757 C323.697126,232.797757 328.784204,230.69062 332.534932,226.939893 L369.221393,190.253431 C377.031879,182.442945 377.031879,169.779646 369.221393,161.96916 L318.149203,110.896969 Z" id="Shape" fill="#000000"></path>
    </g>
</svg>