<?xml version="1.0" encoding="UTF-8"?>
<svg width="1501px" height="480px" viewBox="0 0 1501 480" version="1.1" xmlns="http://www.w3.org/2000/svg" xmlns:xlink="http://www.w3.org/1999/xlink">
    <title>Logo Horizontal QCDG </title>
    <g id="Logo-Horizontal-QCDG-" stroke="none" stroke-width="1" fill="none" fill-rule="evenodd">
        <path d="M240,0 C372.54834,0 480,107.45166 480,240 C480,372.54834 372.54834,480 240,480 C107.45166,480 -9.09494702e-13,372.54834 -9.09494702e-13,240 C-9.09494702e-13,107.45166 107.45166,0 240,0 Z M212.797757,247.320606 L161.725566,247.320606 C156.421237,247.320606 151.334158,249.427742 147.583431,253.17847 L110.896969,289.864932 C103.086483,297.675417 103.086483,310.338717 110.896969,318.149203 L161.96916,369.221393 C169.779646,377.031879 182.442945,377.031879 190.253431,369.221393 L226.939893,332.534932 C230.69062,328.784204 232.797757,323.697126 232.797757,318.392796 L232.797757,267.320606 C232.797757,256.274911 223.843452,247.320606 212.797757,247.320606 Z M318.392796,247.320606 L267.320606,247.320606 C256.274911,247.320606 247.320606,256.274911 247.320606,267.320606 L247.320606,318.392796 C247.320606,323.697126 249.427742,328.784204 253.17847,332.534932 L289.864932,369.221393 C297.675417,377.031879 310.338717,377.031879 318.149203,369.221393 L369.221393,318.149203 C377.031879,310.338717 377.031879,297.675417 369.221393,289.864932 L332.534932,253.17847 C328.784204,249.427742 323.697126,247.320606 318.392796,247.320606 Z M190.253431,110.896969 C182.442945,103.086483 169.779646,103.086483 161.96916,110.896969 L110.896969,161.96916 C103.086483,169.779646 103.086483,182.442945 110.896969,190.253431 L147.583431,226.939893 C151.334158,230.69062 156.421237,232.797757 161.725566,232.797757 L212.797757,232.797757 C223.843452,232.797757 232.797757,223.843452 232.797757,212.797757 L232.797757,161.725566 C232.797757,156.421237 230.69062,151.334158 226.939893,147.583431 L190.253431,110.896969 Z M318.149203,110.896969 C310.338717,103.086483 297.675417,103.086483 289.864932,110.896969 L253.17847,147.583431 C249.427742,151.334158 247.320606,156.421237 247.320606,161.725566 L247.320606,212.797757 C247.320606,223.843452 256.274911,232.797757 267.320606,232.797757 L318.392796,232.797757 C323.697126,232.797757 328.784204,230.69062 332.534932,226.939893 L369.221393,190.253431 C377.031879,182.442945 377.031879,169.779646 369.221393,161.96916 L318.149203,110.896969 Z M647.618,315.41 C658.822667,315.41 669.341333,313.237667 679.174,308.893 L640.072,275.622 L673.686,237.892 L713.131,273.564 C717.369699,264.194244 719.54074,253.518598 719.644123,241.537064 L719.648,239.95 C719.648,229.66 717.875833,219.941667 714.3315,210.795 C710.787167,201.648333 705.7565,193.645 699.2395,186.785 C692.7225,179.925 685.005,174.494167 676.087,170.4925 C667.169,166.490833 657.450667,164.49 646.932,164.49 C636.184667,164.49 626.409167,166.433667 617.6055,170.321 C608.801833,174.208333 601.255833,179.582 594.9675,186.442 C588.679167,193.302 583.762833,201.248167 580.2185,210.2805 C576.674167,219.312833 574.902,228.974 574.902,239.264 L574.902,239.95 C574.902,250.24 576.674167,259.958333 580.2185,269.105 C583.762833,278.251667 588.7935,286.255 595.3105,293.115 C601.8275,299.975 609.487833,305.405833 618.2915,309.4075 C627.095167,313.409167 636.870667,315.41 647.618,315.41 Z M718.276,343.536 C707.986,350.167333 696.895667,355.255167 685.005,358.7995 C673.114333,362.343833 660.423333,364.116 646.932,364.116 C628.41,364.116 611.374333,360.8575 595.825,354.3405 C580.275667,347.8235 566.8415,339.019833 555.5225,327.9295 C544.2035,316.839167 535.399833,303.805167 529.1115,288.8275 C522.823167,273.849833 519.679,257.786 519.679,240.636 L519.679,239.95 C519.679,222.8 522.880333,206.736167 529.283,191.7585 C535.685667,176.780833 544.5465,163.6325 555.8655,152.3135 C567.1845,140.9945 580.675833,132.0765 596.3395,125.5595 C612.003167,119.0425 629.096,115.784 647.618,115.784 C666.14,115.784 683.175667,119.0425 698.725,125.5595 C714.274333,132.0765 727.7085,140.880167 739.0275,151.9705 C750.3465,163.060833 759.150167,176.094833 765.4385,191.0725 C771.726833,206.050167 774.871,222.114 774.871,239.264 L774.871,239.95 C774.871,252.526667 773.041667,264.646 769.383,276.308 C765.724333,287.97 760.465,298.831667 753.605,308.893 L778.301,329.816 L744.687,367.203 L718.276,343.536 Z M914.366,364.116 C896.758667,364.116 880.409,360.914667 865.317,354.512 C850.225,348.109333 837.191,339.362833 826.215,328.2725 C815.239,317.182167 806.664,304.091 800.49,288.999 C794.316,273.907 791.229,257.786 791.229,240.636 L791.229,239.95 C791.229,222.8 794.316,206.736167 800.49,191.7585 C806.664,176.780833 815.239,163.6325 826.215,152.3135 C837.191,140.9945 850.339333,132.0765 865.66,125.5595 C880.980667,119.0425 897.902,115.784 916.424,115.784 C927.628667,115.784 937.8615,116.698667 947.1225,118.528 C956.3835,120.357333 964.787,122.872667 972.333,126.074 C979.879,129.275333 986.853333,133.162667 993.256,137.736 C999.658667,142.309333 1005.604,147.34 1011.092,152.828 L977.478,191.587 C968.102667,183.126333 958.555833,176.495 948.8375,171.693 C939.119167,166.891 928.200333,164.49 916.081,164.49 C906.019667,164.49 896.7015,166.433667 888.1265,170.321 C879.5515,174.208333 872.177,179.582 866.003,186.442 C859.829,193.302 855.027,201.248167 851.597,210.2805 C848.167,219.312833 846.452,228.974 846.452,239.264 L846.452,239.95 C846.452,250.24 848.167,259.958333 851.597,269.105 C855.027,278.251667 859.771833,286.255 865.8315,293.115 C871.891167,299.975 879.2085,305.405833 887.7835,309.4075 C896.3585,313.409167 905.791,315.41 916.081,315.41 C929.801,315.41 941.405833,312.894667 950.8955,307.864 C960.385167,302.833333 969.817667,295.973333 979.193,287.284 L1012.807,321.241 C1006.633,327.872333 1000.23033,333.817667 993.599,339.077 C986.967667,344.336333 979.7075,348.8525 971.8185,352.6255 C963.9295,356.3985 955.297333,359.256833 945.922,361.2005 C936.546667,363.144167 926.028,364.116 914.366,364.116 Z M1128.635,312.323 C1139.38233,312.323 1149.215,310.608 1158.133,307.178 C1167.051,303.748 1174.65417,298.831667 1180.9425,292.429 C1187.23083,286.026333 1192.14717,278.480333 1195.6915,269.791 C1199.23583,261.101667 1201.008,251.383333 1201.008,240.636 L1201.008,239.95 C1201.008,229.431333 1199.23583,219.713 1195.6915,210.795 C1192.14717,201.877 1187.23083,194.216667 1180.9425,187.814 C1174.65417,181.411333 1167.051,176.437833 1158.133,172.8935 C1149.215,169.349167 1139.38233,167.577 1128.635,167.577 L1087.818,167.577 L1087.818,312.323 L1128.635,312.323 Z M1034.996,119.9 L1128.635,119.9 C1147.38567,119.9 1164.59283,122.929833 1180.2565,128.9895 C1195.92017,135.049167 1209.4115,143.452667 1220.7305,154.2 C1232.0495,164.947333 1240.796,177.581167 1246.97,192.1015 C1253.144,206.621833 1256.231,222.342667 1256.231,239.264 L1256.231,239.95 C1256.231,256.871333 1253.144,272.649333 1246.97,287.284 C1240.796,301.918667 1232.0495,314.609667 1220.7305,325.357 C1209.4115,336.104333 1195.92017,344.565 1180.2565,350.739 C1164.59283,356.913 1147.38567,360 1128.635,360 L1034.996,360 L1034.996,119.9 Z M1398.813,364.116 C1380.06233,364.116 1362.9695,361.029 1347.5345,354.855 C1332.0995,348.681 1318.83683,340.106 1307.7465,329.13 C1296.65617,318.154 1288.024,305.12 1281.85,290.028 C1275.676,274.936 1272.589,258.472 1272.589,240.636 L1272.589,239.95 C1272.589,222.8 1275.73317,206.736167 1282.0215,191.7585 C1288.30983,176.780833 1297.05633,163.6325 1308.261,152.3135 C1319.46567,140.9945 1332.72833,132.0765 1348.049,125.5595 C1363.36967,119.0425 1380.17667,115.784 1398.47,115.784 C1409.21733,115.784 1418.99283,116.527167 1427.7965,118.0135 C1436.60017,119.499833 1444.775,121.615 1452.321,124.359 C1459.867,127.103 1466.95567,130.533 1473.587,134.649 C1480.21833,138.765 1486.621,143.452667 1492.795,148.712 L1459.524,188.843 C1454.95067,184.955667 1450.37733,181.525667 1445.804,178.553 C1441.23067,175.580333 1436.48583,173.065 1431.5695,171.007 C1426.65317,168.949 1421.33667,167.348333 1415.62,166.205 C1409.90333,165.061667 1403.615,164.49 1396.755,164.49 C1387.151,164.49 1378.17583,166.490833 1369.8295,170.4925 C1361.48317,174.494167 1354.16583,179.867833 1347.8775,186.6135 C1341.58917,193.359167 1336.67283,201.248167 1333.1285,210.2805 C1329.58417,219.312833 1327.812,228.974 1327.812,239.264 L1327.812,239.95 C1327.812,250.926 1329.58417,261.0445 1333.1285,270.3055 C1336.67283,279.5665 1341.7035,287.627 1348.2205,294.487 C1354.7375,301.347 1362.39783,306.6635 1371.2015,310.4365 C1380.00517,314.2095 1389.78067,316.096 1400.528,316.096 C1420.19333,316.096 1436.77167,311.294 1450.263,301.69 L1450.263,267.39 L1397.098,267.39 L1397.098,221.771 L1501.37,221.771 L1501.37,326.043 C1489.022,336.561667 1474.33017,345.536833 1457.2945,352.9685 C1440.25883,360.400167 1420.765,364.116 1398.813,364.116 Z" id="Shape" fill="#000000"></path>
    </g>
</svg>